<svg xmlns="http://www.w3.org/2000/svg" width="1654" height="1169" viewBox="0 0 1654 1169"><rect width="100%" height="100%" fill="white"/><defs><marker id="arrow" markerWidth="8" markerHeight="8" refX="7" refY="4" orient="auto"><path d="M0,0 L8,4 L0,8 z" fill="#334155"/></marker><marker id="open" markerWidth="9" markerHeight="9" refX="8" refY="4.5" orient="auto"><path d="M1,1 L8,4.5 L1,8" fill="none" stroke="#334155"/></marker></defs><rect x="25" y="70" width="790" height="1060" fill="white" stroke="#64748b"/><text x="35" y="92" font-size="13" font-weight="700">CLIENT — React / TypeScript / PixiJS</text><rect x="840" y="70" width="790" height="1060" fill="white" stroke="#64748b"/><text x="850" y="92" font-size="13" font-weight="700">SERVER — Spring Boot / Java</text><path d="M175 164 L425 154" fill="none" stroke="#64748b" stroke-width="1.4"/><path d="M175 164 L665 154" fill="none" stroke="#64748b" stroke-width="1.4"/><path d="M175 164 L180 304" fill="none" stroke="#64748b" stroke-width="1.4"/><path d="M175 164 L425 304" fill="none" stroke="#64748b" stroke-width="1.4"/><path d="M175 164 L665 294" fill="none" stroke="#64748b" stroke-width="1.4" stroke-dasharray="7 5" marker-end="url(#open)"/><path d="M665 154 L440 447.5" fill="none" stroke="#64748b" stroke-width="1.4" stroke-dasharray="7 5" marker-end="url(#open)"/><path d="M180 304 L180 604" fill="none" stroke="#64748b" stroke-width="1.4"/><path d="M180 604 L440 602.5" fill="none" stroke="#64748b" stroke-width="1.4"/><text x="310" y="598.25" text-anchor="middle" font-size="11" fill="#0f172a">1</text><path d="M440 602.5 L685 602.5" fill="none" stroke="#64748b" stroke-width="1.4"/><text x="562.5" y="597.5" text-anchor="middle" font-size="11" fill="#0f172a">1</text><path d="M685 602.5 L440 447.5" fill="none" stroke="#64748b" stroke-width="1.4" stroke-dasharray="7 5" marker-end="url(#open)"/><text x="562.5" y="520" text-anchor="middle" font-size="11" fill="#0f172a">gửi input</text><path d="M440 447.5 L685 447.5" fill="none" stroke="#64748b" stroke-width="1.4" stroke-dasharray="7 5" marker-end="url(#open)"/><path d="M440 447.5 L665 294" fill="none" stroke="#64748b" stroke-width="1.4" stroke-dasharray="7 5" marker-end="url(#open)"/><text x="552.5" y="365.75" text-anchor="middle" font-size="11" fill="#0f172a">cập nhật</text><path d="M440 447.5 L180 449" fill="none" stroke="#64748b" stroke-width="1.4" stroke-dasharray="7 5" marker-end="url(#open)"/><text x="310" y="443.25" text-anchor="middle" font-size="11" fill="#0f172a">cập nhật</text><path d="M440 602.5 L180 449" fill="none" stroke="#64748b" stroke-width="1.4" stroke-dasharray="7 5" marker-end="url(#open)"/><text x="310" y="520.75" text-anchor="middle" font-size="11" fill="#0f172a">snapshot/render state</text><path d="M985 170 L1500 165" fill="none" stroke="#64748b" stroke-width="1.4" stroke-dasharray="7 5" marker-end="url(#open)"/><text x="1242.5" y="162.5" text-anchor="middle" font-size="11" fill="#0f172a">cấu hình</text><path d="M985 170 L1255 164" fill="none" stroke="#64748b" stroke-width="1.4"/><text x="1120" y="162" text-anchor="middle" font-size="11" fill="#0f172a">1</text><path d="M1500 165 L1255 365" fill="none" stroke="#64748b" stroke-width="1.4" stroke-dasharray="7 5" marker-end="url(#open)"/><path d="M1500 165 L1500 344" fill="none" stroke="#64748b" stroke-width="1.4" stroke-dasharray="7 5" marker-end="url(#open)"/><path d="M1500 165 L985 534" fill="none" stroke="#64748b" stroke-width="1.4" stroke-dasharray="7 5" marker-end="url(#open)"/><path d="M1500 165 L1255 534" fill="none" stroke="#64748b" stroke-width="1.4" stroke-dasharray="7 5" marker-end="url(#open)"/><path d="M1500 165 L1500 532.5" fill="none" stroke="#64748b" stroke-width="1.4" stroke-dasharray="7 5" marker-end="url(#open)"/><path d="M1255 365 L985 365" fill="none" stroke="#64748b" stroke-width="1.4"/><text x="1120" y="360" text-anchor="middle" font-size="11" fill="#0f172a">1 ◇— 0..*</text><path d="M1500 532.5 L1050 742.5" fill="none" stroke="#64748b" stroke-width="1.4"/><text x="1275" y="632.5" text-anchor="middle" font-size="11" fill="#0f172a">1</text><path d="M1500 532.5 L1400 732.5" fill="none" stroke="#64748b" stroke-width="1.4"/><text x="1450" y="627.5" text-anchor="middle" font-size="11" fill="#0f172a">1</text><path d="M1500 532.5 L1050 914" fill="none" stroke="#64748b" stroke-width="1.4" stroke-dasharray="7 5" marker-end="url(#open)"/><path d="M1050 742.5 L1400 732.5" fill="none" stroke="#64748b" stroke-width="1.4" stroke-dasharray="7 5" marker-end="url(#open)"/><text x="1225" y="732.5" text-anchor="middle" font-size="11" fill="#0f172a">tick()</text><path d="M1400 732.5 L1400 914" fill="none" stroke="#64748b" stroke-width="1.4"/><text x="1400" y="818.25" text-anchor="middle" font-size="11" fill="#0f172a">1</text><path d="M440 447.5 L1500 165" fill="none" stroke="#7c3aed" stroke-width="2" marker-end="url(#open)"/><text x="970" y="301.25" text-anchor="middle" font-size="11" fill="#0f172a">WebSocket JSON protocol v2</text><text x="825" y="35" text-anchor="middle" font-size="24" font-weight="700" fill="#0f172a"><tspan x="825" dy="0">Mimope.io — Sơ đồ lớp: Tổng quan client-server</tspan></text><rect x="70" y="120" width="210" height="88" fill="white" stroke="#334155" stroke-width="1.3"/><line x1="70" y1="148" x2="280" y2="148" stroke="#334155"/><text x="175" y="138" text-anchor="middle" font-size="10.5" font-weight="600">«component» App</text><text x="175" y="165" text-anchor="middle" font-size="10"><tspan x="175" dy="0">screen: Screen</tspan><tspan x="175" dy="14">điều phối màn hình</tspan></text><rect x="330" y="110" width="190" height="88" fill="white" stroke="#334155" stroke-width="1.3"/><line x1="330" y1="138" x2="520" y2="138" stroke="#334155"/><text x="425" y="128" text-anchor="middle" font-size="10.5" font-weight="600">«component» HomeScreen</text><text x="425" y="155" text-anchor="middle" font-size="10"><tspan x="425" dy="0">nickname, starter</tspan></text><rect x="570" y="110" width="190" height="88" fill="white" stroke="#334155" stroke-width="1.3"/><line x1="570" y1="138" x2="760" y2="138" stroke="#334155"/><text x="665" y="128" text-anchor="middle" font-size="10.5" font-weight="600">«component» LoadingScreen</text><text x="665" y="155" text-anchor="middle" font-size="10"><tspan x="665" dy="0">connect / join</tspan></text><rect x="70" y="260" width="220" height="88" fill="white" stroke="#334155" stroke-width="1.3"/><line x1="70" y1="288" x2="290" y2="288" stroke="#334155"/><text x="180" y="278" text-anchor="middle" font-size="10.5" font-weight="600">«component» GameScreen</text><text x="180" y="305" text-anchor="middle" font-size="10"><tspan x="180" dy="0">HUD / leaderboard / minimap</tspan></text><rect x="330" y="260" width="190" height="88" fill="white" stroke="#334155" stroke-width="1.3"/><line x1="330" y1="288" x2="520" y2="288" stroke="#334155"/><text x="425" y="278" text-anchor="middle" font-size="10.5" font-weight="600">«component» DeathScreen</text><text x="425" y="305" text-anchor="middle" font-size="10"><tspan x="425" dy="0">chơi lại</tspan></text><rect x="570" y="250" width="190" height="88" fill="white" stroke="#334155" stroke-width="1.3"/><line x1="570" y1="278" x2="760" y2="278" stroke="#334155"/><text x="665" y="268" text-anchor="middle" font-size="10.5" font-weight="600">«component» uiStore</text><text x="665" y="295" text-anchor="middle" font-size="10"><tspan x="665" dy="0">screen, nickname, error, death</tspan></text><rect x="70" y="405" width="220" height="88" fill="white" stroke="#334155" stroke-width="1.3"/><line x1="70" y1="433" x2="290" y2="433" stroke="#334155"/><text x="180" y="423" text-anchor="middle" font-size="10.5" font-weight="600">«component» gameStore</text><text x="180" y="450" text-anchor="middle" font-size="10"><tspan x="180" dy="0">localPlayerId, players, foods, tick</tspan></text><rect x="330" y="395" width="220" height="105" fill="white" stroke="#334155" stroke-width="1.3"/><line x1="330" y1="423" x2="550" y2="423" stroke="#334155"/><text x="440" y="413" text-anchor="middle" font-size="10.5" font-weight="600">GameConnection</text><text x="440" y="440" text-anchor="middle" font-size="10"><tspan x="440" dy="0">-state: ConnectionState</tspan><tspan x="440" dy="14">+connect(); +join(); +sendInput()</tspan></text><rect x="590" y="395" width="190" height="105" fill="white" stroke="#334155" stroke-width="1.3"/><line x1="590" y1="423" x2="780" y2="423" stroke="#334155"/><text x="685" y="413" text-anchor="middle" font-size="10.5" font-weight="600">«component» protocol.ts</text><text x="685" y="440" text-anchor="middle" font-size="10"><tspan x="685" dy="0">PROTOCOL_VERSION</tspan><tspan x="685" dy="14">createJoinMessage(); parseServerMessage()</tspan></text><rect x="70" y="560" width="220" height="88" fill="white" stroke="#334155" stroke-width="1.3"/><line x1="70" y1="588" x2="290" y2="588" stroke="#334155"/><text x="180" y="578" text-anchor="middle" font-size="10.5" font-weight="600">«component» GameCanvas</text><text x="180" y="605" text-anchor="middle" font-size="10"><tspan x="180" dy="0">Pixi lifecycle bridge</tspan></text><rect x="330" y="550" width="220" height="105" fill="white" stroke="#334155" stroke-width="1.3"/><line x1="330" y1="578" x2="550" y2="578" stroke="#334155"/><text x="440" y="568" text-anchor="middle" font-size="10.5" font-weight="600">PixiGame</text><text x="440" y="595" text-anchor="middle" font-size="10"><tspan x="440" dy="0">+init(); +onSnapshot</tspan><tspan x="440" dy="14">+fps; +playerPosition</tspan></text><rect x="590" y="550" width="190" height="105" fill="white" stroke="#334155" stroke-width="1.3"/><line x1="590" y1="578" x2="780" y2="578" stroke="#334155"/><text x="685" y="568" text-anchor="middle" font-size="10.5" font-weight="600">InputManager</text><text x="685" y="595" text-anchor="middle" font-size="10"><tspan x="685" dy="0">+attach(); +detach()</tspan><tspan x="685" dy="14">+snapshot()</tspan></text><rect x="875" y="120" width="220" height="100" fill="white" stroke="#334155" stroke-width="1.3"/><line x1="875" y1="148" x2="1095" y2="148" stroke="#334155"/><text x="985" y="138" text-anchor="middle" font-size="10.5" font-weight="600">WebSocketConfig</text><text x="985" y="165" text-anchor="middle" font-size="10"><tspan x="985" dy="0">-properties</tspan><tspan x="985" dy="14">+registerWebSocketHandlers()</tspan></text><rect x="1150" y="120" width="210" height="88" fill="white" stroke="#334155" stroke-width="1.3"/><line x1="1150" y1="148" x2="1360" y2="148" stroke="#334155"/><text x="1255" y="138" text-anchor="middle" font-size="10.5" font-weight="600">«record» WebSocketProperties</text><text x="1255" y="165" text-anchor="middle" font-size="10"><tspan x="1255" dy="0">allowedOriginPatterns</tspan></text><rect x="1400" y="110" width="200" height="110" fill="white" stroke="#334155" stroke-width="1.3"/><line x1="1400" y1="138" x2="1600" y2="138" stroke="#334155"/><text x="1500" y="128" text-anchor="middle" font-size="10.5" font-weight="600">GameWebSocketHandler</text><text x="1500" y="155" text-anchor="middle" font-size="10"><tspan x="1500" dy="0">-sessionRegistry; -gameRoom</tspan><tspan x="1500" dy="14">+afterConnectionEstablished()</tspan></text><rect x="875" y="310" width="220" height="110" fill="white" stroke="#334155" stroke-width="1.3"/><line x1="875" y1="338" x2="1095" y2="338" stroke="#334155"/><text x="985" y="328" text-anchor="middle" font-size="10.5" font-weight="600">ClientSession</text><text x="985" y="355" text-anchor="middle" font-size="10"><tspan x="985" dy="0">-session; -nickname</tspan><tspan x="985" dy="14">+allowMessage(); +isOpen()</tspan></text><rect x="1150" y="310" width="210" height="110" fill="white" stroke="#334155" stroke-width="1.3"/><line x1="1150" y1="338" x2="1360" y2="338" stroke="#334155"/><text x="1255" y="328" text-anchor="middle" font-size="10.5" font-weight="600">SessionRegistry</text><text x="1255" y="355" text-anchor="middle" font-size="10"><tspan x="1255" dy="0">-sessions</tspan><tspan x="1255" dy="14">+add(); +remove(); +getAll()</tspan></text><rect x="1400" y="300" width="200" height="88" fill="white" stroke="#334155" stroke-width="1.3"/><line x1="1400" y1="328" x2="1600" y2="328" stroke="#334155"/><text x="1500" y="318" text-anchor="middle" font-size="10.5" font-weight="600">MessageDecoder</text><text x="1500" y="345" text-anchor="middle" font-size="10"><tspan x="1500" dy="0">+decode(json)</tspan></text><rect x="875" y="490" width="220" height="88" fill="white" stroke="#334155" stroke-width="1.3"/><line x1="875" y1="518" x2="1095" y2="518" stroke="#334155"/><text x="985" y="508" text-anchor="middle" font-size="10.5" font-weight="600">MessageEncoder</text><text x="985" y="535" text-anchor="middle" font-size="10"><tspan x="985" dy="0">+send(); +sendError()</tspan></text><rect x="1150" y="490" width="210" height="88" fill="white" stroke="#334155" stroke-width="1.3"/><line x1="1150" y1="518" x2="1360" y2="518" stroke="#334155"/><text x="1255" y="508" text-anchor="middle" font-size="10.5" font-weight="600">NicknameValidator</text><text x="1255" y="535" text-anchor="middle" font-size="10"><tspan x="1255" dy="0">+validate(raw)</tspan></text><rect x="1400" y="475" width="200" height="115" fill="white" stroke="#334155" stroke-width="1.3"/><line x1="1400" y1="503" x2="1600" y2="503" stroke="#334155"/><text x="1500" y="493" text-anchor="middle" font-size="10.5" font-weight="600">GameRoom</text><text x="1500" y="520" text-anchor="middle" font-size="10"><tspan x="1500" dy="0">-world; -loop</tspan><tspan x="1500" dy="14">+addPlayer(); +queueInput()</tspan></text><rect x="940" y="690" width="220" height="105" fill="white" stroke="#334155" stroke-width="1.3"/><line x1="940" y1="718" x2="1160" y2="718" stroke="#334155"/><text x="1050" y="708" text-anchor="middle" font-size="10.5" font-weight="600">GameLoop</text><text x="1050" y="735" text-anchor="middle" font-size="10"><tspan x="1050" dy="0">-world; -tickRate</tspan><tspan x="1050" dy="14">+start(); +stop()</tspan></text><rect x="1280" y="680" width="240" height="105" fill="white" stroke="#334155" stroke-width="1.3"/><line x1="1280" y1="708" x2="1520" y2="708" stroke="#334155"/><text x="1400" y="698" text-anchor="middle" font-size="10.5" font-weight="600">GameWorld</text><text x="1400" y="725" text-anchor="middle" font-size="10"><tspan x="1400" dy="0">-players; -foods; -tick</tspan><tspan x="1400" dy="14">+tick(); +submit()</tspan></text><rect x="940" y="870" width="220" height="88" fill="white" stroke="#334155" stroke-width="1.3"/><line x1="940" y1="898" x2="1160" y2="898" stroke="#334155"/><text x="1050" y="888" text-anchor="middle" font-size="10.5" font-weight="600">SnapshotMetrics</text><text x="1050" y="915" text-anchor="middle" font-size="10"><tspan x="1050" dy="0">+record(); +reset()</tspan></text><rect x="1280" y="870" width="240" height="88" fill="white" stroke="#334155" stroke-width="1.3"/><line x1="1280" y1="898" x2="1520" y2="898" stroke="#334155"/><text x="1400" y="888" text-anchor="middle" font-size="10.5" font-weight="600">GameCommandQueue</text><text x="1400" y="915" text-anchor="middle" font-size="10"><tspan x="1400" dy="0">-queue</tspan><tspan x="1400" dy="14">+submit(); +drain()</tspan></text></svg>
